<?xml version="1.0" standalone="no"?><!-- Generator: Gravit.io --><svg xmlns="http://www.w3.org/2000/svg" xmlns:xlink="http://www.w3.org/1999/xlink" style="isolation:isolate" viewBox="1148 2835.972 36 29.255" width="36" height="29.255"><path d=" M 1184 2839.435 C 1182.673 2840.024 1181.25 2840.419 1179.755 2840.599 C 1181.281 2839.684 1182.454 2838.237 1183.004 2836.514 C 1181.579 2837.358 1179.993 2837.973 1178.313 2838.304 C 1176.966 2836.867 1175.047 2835.972 1172.923 2835.972 C 1168.844 2835.972 1165.536 2839.278 1165.536 2843.357 C 1165.536 2843.935 1165.603 2844.499 1165.729 2845.04 C 1159.59 2844.732 1154.15 2841.791 1150.505 2837.322 C 1149.869 2838.416 1149.507 2839.684 1149.507 2841.037 C 1149.507 2843.598 1150.809 2845.86 1152.792 2847.187 C 1151.58 2847.148 1150.441 2846.814 1149.445 2846.261 C 1149.445 2846.292 1149.445 2846.323 1149.445 2846.354 C 1149.445 2849.934 1151.993 2852.916 1155.368 2853.598 C 1154.751 2853.766 1154.097 2853.856 1153.423 2853.856 C 1152.946 2853.856 1152.484 2853.811 1152.032 2853.721 C 1152.975 2856.653 1155.702 2858.794 1158.931 2858.853 C 1156.406 2860.834 1153.221 2862.012 1149.759 2862.012 C 1149.162 2862.012 1148.575 2861.979 1148 2861.908 C 1151.266 2864.007 1155.149 2865.228 1159.321 2865.228 C 1172.906 2865.228 1180.336 2853.974 1180.336 2844.216 C 1180.336 2843.896 1180.327 2843.573 1180.316 2843.259 C 1181.758 2842.218 1183.01 2840.916 1184 2839.435 Z " fill="rgb(255,255,255)"/></svg>