<?xml version="1.0" standalone="no"?><!-- Generator: Gravit.io --><svg xmlns="http://www.w3.org/2000/svg" xmlns:xlink="http://www.w3.org/1999/xlink" style="isolation:isolate" viewBox="916.25 2839.124 36 25.2" width="36" height="25.2"><path d=" M 930.65 2857.124 L 939.992 2851.724 L 930.65 2846.324 L 930.65 2857.124 Z  M 951.458 2843.03 C 951.692 2843.876 951.854 2845.01 951.962 2846.45 C 952.088 2847.89 952.142 2849.132 952.142 2850.212 L 952.25 2851.724 C 952.25 2855.666 951.962 2858.564 951.458 2860.418 C 951.008 2862.038 949.964 2863.082 948.344 2863.532 C 947.498 2863.766 945.95 2863.928 943.574 2864.036 C 941.234 2864.162 939.092 2864.216 937.112 2864.216 L 934.25 2864.324 C 926.708 2864.324 922.01 2864.036 920.156 2863.532 C 918.536 2863.082 917.492 2862.038 917.042 2860.418 C 916.808 2859.572 916.646 2858.438 916.538 2856.998 C 916.412 2855.558 916.358 2854.316 916.358 2853.236 L 916.25 2851.724 C 916.25 2847.782 916.538 2844.884 917.042 2843.03 C 917.492 2841.41 918.536 2840.366 920.156 2839.916 C 921.002 2839.682 922.55 2839.52 924.926 2839.412 C 927.266 2839.286 929.408 2839.232 931.388 2839.232 L 934.25 2839.124 C 941.792 2839.124 946.49 2839.412 948.344 2839.916 C 949.964 2840.366 951.008 2841.41 951.458 2843.03 Z " fill="rgb(255,255,255)"/></svg>