<?xml version="1.0" standalone="no"?><!-- Generator: Gravit.io --><svg xmlns="http://www.w3.org/2000/svg" xmlns:xlink="http://www.w3.org/1999/xlink" style="isolation:isolate" viewBox="800.375 2835.388 36 36" width="36" height="36"><path d=" M 826.331 2864.944 C 825.575 2861.488 824.675 2858.302 823.775 2855.494 C 824.675 2855.368 825.575 2855.296 826.619 2855.296 L 826.655 2855.296 L 826.655 2855.296 L 826.655 2855.296 C 828.329 2855.296 830.165 2855.512 832.163 2855.962 C 831.479 2859.688 829.319 2862.874 826.331 2864.944 Z  M 818.375 2867.428 C 815.243 2867.428 812.363 2866.402 810.023 2864.656 C 810.527 2863.846 811.589 2862.28 813.299 2860.66 C 815.027 2858.986 817.475 2857.258 820.589 2856.232 C 821.651 2859.238 822.623 2862.658 823.361 2866.51 C 821.813 2867.104 820.175 2867.428 818.375 2867.428 Z  M 804.335 2853.388 C 804.335 2853.316 804.335 2853.262 804.335 2853.19 C 804.731 2853.208 805.253 2853.208 805.865 2853.208 L 805.883 2853.208 C 808.691 2853.19 813.623 2852.956 818.627 2851.39 C 818.897 2851.984 819.167 2852.596 819.437 2853.244 C 816.089 2854.36 813.461 2856.142 811.517 2857.888 C 809.663 2859.616 808.385 2861.29 807.647 2862.388 C 805.595 2859.976 804.335 2856.826 804.335 2853.388 Z  M 812.165 2840.788 C 813.155 2841.958 815.099 2844.496 817.187 2848.438 C 812.975 2849.716 808.673 2850.004 806.099 2850.004 C 806.027 2850.004 805.955 2850.004 805.883 2850.004 L 805.865 2850.004 C 805.433 2850.004 805.055 2850.004 804.749 2849.986 C 805.775 2845.954 808.475 2842.588 812.165 2840.788 Z  M 818.375 2839.348 C 821.687 2839.348 824.729 2840.5 827.123 2842.426 C 825.287 2844.64 822.875 2846.188 820.229 2847.358 C 818.375 2843.794 816.575 2841.238 815.387 2839.672 C 816.359 2839.474 817.349 2839.348 818.375 2839.348 Z  M 829.409 2844.712 C 831.155 2846.944 832.253 2849.716 832.397 2852.722 C 830.363 2852.29 828.455 2852.092 826.655 2852.092 L 826.655 2852.092 L 826.637 2852.092 C 825.197 2852.092 823.847 2852.218 822.569 2852.434 C 822.263 2851.678 821.975 2850.958 821.633 2850.256 C 824.477 2849.014 827.195 2847.232 829.409 2844.712 Z  M 818.375 2835.388 C 808.434 2835.388 800.375 2843.447 800.375 2853.388 C 800.375 2863.329 808.434 2871.388 818.375 2871.388 C 828.316 2871.388 836.375 2863.329 836.375 2853.388 C 836.375 2843.447 828.316 2835.388 818.375 2835.388 Z " fill="rgb(255,255,255)"/></svg>