<?xml version="1.0" standalone="no"?><!-- Generator: Gravit.io --><svg xmlns="http://www.w3.org/2000/svg" xmlns:xlink="http://www.w3.org/1999/xlink" style="isolation:isolate" viewBox="1032.125 2832.6 36 36" width="36" height="36"><path d=" M 1064.852 2832.6 L 1035.398 2832.6 C 1033.59 2832.6 1032.125 2834.065 1032.125 2835.873 L 1032.125 2865.327 C 1032.125 2867.135 1033.59 2868.6 1035.398 2868.6 L 1051.761 2868.6 L 1051.761 2853.873 L 1046.852 2853.873 L 1046.852 2848.964 L 1051.761 2848.964 L 1051.761 2846.327 C 1051.761 2841.337 1054.193 2839.145 1058.341 2839.145 C 1060.328 2839.145 1061.378 2839.293 1061.876 2839.36 L 1061.876 2844.055 L 1059.046 2844.055 C 1057.286 2844.055 1056.67 2844.984 1056.67 2846.866 L 1056.67 2848.964 L 1061.832 2848.964 L 1061.131 2853.873 L 1056.67 2853.873 L 1056.67 2868.6 L 1064.852 2868.6 C 1066.66 2868.6 1068.125 2867.135 1068.125 2865.327 L 1068.125 2835.873 C 1068.125 2834.065 1066.659 2832.6 1064.852 2832.6 Z " fill="rgb(255,255,255)"/></svg>