<?xml version="1.0" standalone="no"?><!-- Generator: Gravit.io --><svg xmlns="http://www.w3.org/2000/svg" xmlns:xlink="http://www.w3.org/1999/xlink" style="isolation:isolate" viewBox="125.822 699 102.356 122.84" width="102.356" height="122.84"><path d=" M 192.353 724.602 L 187.236 724.602 L 187.236 719.484 L 192.353 719.484 M 166.764 724.602 L 161.647 724.602 L 161.647 719.484 L 166.764 719.484 M 195.066 710.067 L 201.77 703.363 C 202.742 702.391 202.742 700.753 201.77 699.729 C 200.746 698.757 199.109 698.757 198.136 699.729 L 190.562 707.304 C 186.468 705.308 181.862 704.131 177 704.131 C 172.087 704.131 167.481 705.308 163.387 707.355 L 155.761 699.729 C 154.789 698.757 153.151 698.757 152.179 699.729 C 151.155 700.753 151.155 702.391 152.179 703.363 L 158.883 710.067 C 151.258 715.697 146.293 724.602 146.293 734.837 L 207.707 734.837 C 207.707 724.602 202.589 715.646 195.066 710.067 Z  M 220.501 739.955 C 216.261 739.955 212.824 743.392 212.824 747.632 L 212.824 783.456 C 212.824 787.696 216.261 791.133 220.501 791.133 C 224.741 791.133 228.178 787.696 228.178 783.456 L 228.178 747.632 C 228.178 743.392 224.741 739.955 220.501 739.955 Z  M 133.499 739.955 C 129.259 739.955 125.822 743.392 125.822 747.632 L 125.822 783.456 C 125.822 787.696 129.259 791.133 133.499 791.133 C 137.739 791.133 141.176 787.696 141.176 783.456 L 141.176 747.632 C 141.176 743.392 137.739 739.955 133.499 739.955 Z  M 146.293 791.133 C 146.293 793.959 148.585 796.251 151.411 796.251 L 156.529 796.251 L 156.529 814.163 C 156.529 818.403 159.966 821.84 164.206 821.84 C 168.445 821.84 171.882 818.403 171.882 814.163 L 171.882 796.251 L 182.118 796.251 L 182.118 814.163 C 182.118 818.403 185.555 821.84 189.794 821.84 C 194.034 821.84 197.471 818.403 197.471 814.163 L 197.471 796.251 L 202.589 796.251 C 205.415 796.251 207.707 793.959 207.707 791.133 L 207.707 739.955 L 146.293 739.955 L 146.293 791.133 Z " fill="rgb(41,171,226)"/></svg>