<?xml version="1.0" standalone="no"?><!-- Generator: Gravit.io --><svg xmlns="http://www.w3.org/2000/svg" xmlns:xlink="http://www.w3.org/1999/xlink" style="isolation:isolate" viewBox="962.6 1727.9 122.8 122.8" width="122.8" height="122.8"><g><circle vector-effect="non-scaling-stroke" cx="1024" cy="1789.3000000000015" r="61.40000000000009" fill="rgb(41,171,226)"/><g><path d=" M 1044.157 1807.131 C 1030.891 1807.131 1021.416 1791.798 1021.071 1791.109 L 1020.038 1789.386 L 1021.071 1787.663 C 1021.416 1786.802 1030.891 1771.469 1044.157 1771.469 C 1053.976 1771.469 1061.901 1779.394 1061.901 1789.214 C 1061.901 1799.034 1053.976 1807.131 1044.157 1807.131 Z  M 1028.135 1789.214 C 1030.719 1792.659 1036.921 1800.067 1043.984 1800.067 C 1050.014 1800.067 1054.838 1795.244 1054.838 1789.214 C 1054.838 1783.184 1050.014 1778.36 1043.984 1778.36 C 1036.921 1778.36 1030.719 1785.768 1028.135 1789.214 Z " fill="rgb(255,255,255)"/><path d=" M 1003.843 1807.131 C 994.024 1807.131 986.099 1799.034 986.099 1789.214 C 986.099 1779.394 994.024 1771.469 1003.843 1771.469 C 1017.453 1771.469 1026.584 1786.802 1026.929 1787.491 L 1027.962 1789.214 L 1026.929 1790.937 C 1026.584 1791.626 1017.109 1807.131 1003.843 1807.131 Z  M 1003.843 1778.36 C 997.814 1778.36 992.99 1783.184 992.99 1789.214 C 992.99 1795.244 997.814 1800.067 1003.843 1800.067 C 1011.079 1800.067 1017.281 1792.659 1019.865 1789.214 C 1017.453 1785.768 1011.251 1778.36 1003.843 1778.36 Z " fill="rgb(255,255,255)"/><path d=" M 999.881 1786.974 L 1010.218 1786.974 L 1010.218 1790.42 L 999.881 1790.42 L 999.881 1786.974 Z " fill="rgb(255,255,255)"/><path d=" M 1037.782 1786.974 L 1048.119 1786.974 L 1048.119 1790.42 L 1037.782 1790.42 L 1037.782 1786.974 Z " fill="rgb(255,255,255)"/><path d=" M 1041.228 1783.529 L 1044.673 1783.529 L 1044.673 1793.865 L 1041.228 1793.865 L 1041.228 1783.529 Z " fill="rgb(255,255,255)"/></g></g></svg>