<?xml version="1.0" standalone="no"?><!-- Generator: Gravit.io --><svg xmlns="http://www.w3.org/2000/svg" xmlns:xlink="http://www.w3.org/1999/xlink" style="isolation:isolate" viewBox="135.335 1375.9 89.329 122.8" width="89.329" height="122.8"><path d=" M 224.665 1475 L 183.908 1497.611 C 181.117 1499.063 178.325 1499.063 175.534 1497.611 L 135.335 1475 L 208.195 1401.582 L 210.149 1401.024 C 211.824 1401.024 212.773 1401.75 212.94 1403.257 L 224.665 1475 Z  M 165.205 1402.699 L 139.802 1444.851 L 150.41 1378.133 C 150.577 1376.626 151.526 1375.9 153.201 1375.9 C 154.318 1375.9 155.044 1376.235 155.434 1377.296 L 167.438 1399.349 L 165.205 1402.699 Z  M 190.329 1409.734 L 137.01 1463.275 L 177.488 1394.603 C 178.046 1393.487 178.883 1392.984 180 1392.984 C 181.117 1392.984 181.842 1393.487 182.233 1394.603 L 190.329 1409.734 Z " fill="rgb(41,171,226)"/></svg>