<?xml version="1.0" standalone="no"?><!-- Generator: Gravit.io --><svg xmlns="http://www.w3.org/2000/svg" xmlns:xlink="http://www.w3.org/1999/xlink" style="isolation:isolate" viewBox="118.6 2518.7 122.8 122.8" width="122.8" height="122.8"><g><path d=" M 142.793 2594.525 C 140.165 2594.212 137.776 2596.087 137.461 2598.718 C 136.071 2610.328 134.318 2618.311 131.943 2623.842 C 128.48 2631.906 124.787 2631.906 123.397 2631.906 C 120.748 2631.906 118.6 2634.054 118.6 2636.703 C 118.6 2639.352 120.748 2641.5 123.397 2641.5 C 130.964 2641.5 136.805 2636.832 140.759 2627.627 C 143.506 2621.229 145.485 2612.405 146.986 2599.857 C 147.301 2597.227 145.424 2594.839 142.793 2594.525 Z " fill="rgb(41,171,226)"/><path d=" M 236.603 2575.303 L 222.577 2575.303 C 223.643 2563.741 224.946 2551.403 227.346 2542.219 C 229.761 2532.979 232.875 2528.294 236.603 2528.294 C 239.252 2528.294 241.4 2526.146 241.4 2523.497 C 241.4 2520.848 239.252 2518.7 236.603 2518.7 C 233.223 2518.7 228.33 2519.873 224.208 2525.462 C 221.708 2528.851 219.698 2533.539 218.064 2539.793 C 215.415 2549.931 214.058 2563.118 212.943 2575.303 L 149.254 2575.303 C 150.304 2562.348 151.35 2550.185 153.545 2541.057 C 154.945 2535.234 157.426 2528.294 161.292 2528.294 C 166.461 2528.294 170.453 2539.465 173.156 2561.497 C 173.479 2564.126 175.875 2565.994 178.502 2565.674 C 181.131 2565.351 183.001 2562.958 182.679 2560.328 C 181.116 2547.589 179.348 2539.088 176.949 2532.764 C 173.408 2523.432 168.141 2518.7 161.292 2518.7 C 158.088 2518.7 153.472 2519.835 149.678 2525.243 C 147.428 2528.453 145.641 2532.892 144.217 2538.814 C 141.807 2548.838 140.731 2561.676 139.629 2575.303 L 123.397 2575.303 C 120.748 2575.303 118.6 2577.45 118.6 2580.1 C 118.6 2582.749 120.748 2584.897 123.397 2584.897 L 175.591 2584.897 C 177.015 2599.266 178.394 2611.132 180.944 2620.777 C 182.563 2626.902 184.521 2631.493 186.929 2634.812 C 190.939 2640.34 195.678 2641.5 198.948 2641.5 C 205.888 2641.5 211.183 2636.762 214.684 2627.418 C 217.051 2621.102 218.758 2612.595 220.22 2599.833 C 220.522 2597.202 218.633 2594.824 216.001 2594.522 C 213.368 2594.219 210.99 2596.11 210.689 2598.742 C 208.167 2620.748 204.217 2631.906 198.948 2631.906 C 194.701 2631.906 191.857 2624.521 190.219 2618.325 C 187.766 2609.047 186.342 2596.109 185.23 2584.897 L 236.603 2584.897 C 239.252 2584.897 241.4 2582.749 241.4 2580.1 C 241.4 2577.451 239.252 2575.303 236.603 2575.303 Z " fill="rgb(41,171,226)"/></g></svg>