<?xml version="1.0" standalone="no"?><!-- Generator: Gravit.io --><svg xmlns="http://www.w3.org/2000/svg" xmlns:xlink="http://www.w3.org/1999/xlink" style="isolation:isolate" viewBox="962.1 2182 122.8 79.999" width="122.8" height="79.999"><path d=" M 984.901 2182 L 984.901 2261.999 L 1024.901 2261.999 C 1042.05 2261.999 1057.4 2251.199 1062.9 2234.999 C 1064.9 2235.999 1067.4 2236.999 1069.9 2236.999 C 1078.184 2236.999 1084.9 2230.284 1084.9 2222 C 1084.9 2213.715 1078.184 2207 1069.9 2207 C 1067.4 2207 1065.05 2207.75 1062.9 2209 C 1057.4 2192.8 1042.05 2182 1024.901 2182 L 984.901 2182 Z  M 994.901 2192 L 1024.901 2192 C 1041.469 2192 1054.9 2205.431 1054.9 2222 C 1054.9 2238.568 1041.469 2251.999 1024.901 2251.999 L 994.901 2251.999 L 994.901 2192 Z  M 1069.9 2217 C 1072.4 2217 1074.9 2219.5 1074.9 2222 C 1074.9 2224.5 1072.4 2227 1069.9 2227 C 1067.139 2227 1064.9 2224.761 1064.9 2222 C 1064.9 2219.5 1067.4 2217 1069.9 2217 Z  M 962.1 2204 L 984.901 2204 L 984.901 2214 L 962.1 2214 L 962.1 2204 Z  M 962.1 2231.999 L 984.901 2231.999 L 984.901 2241.999 L 962.1 2241.999 L 962.1 2231.999 Z " fill-rule="evenodd" fill="rgb(41,171,226)"/></svg>