<?xml version="1.0" standalone="no"?><!-- Generator: Gravit.io --><svg xmlns="http://www.w3.org/2000/svg" xmlns:xlink="http://www.w3.org/1999/xlink" style="isolation:isolate" viewBox="558.24 1374.9 90.521 122.8" width="90.521" height="122.8"><path d=" M 631.144 1399.961 C 631.144 1399.961 589.131 1410.464 609.278 1433.62 C 615.236 1440.438 607.742 1446.581 607.742 1446.581 C 607.742 1446.581 622.791 1438.903 615.789 1429.075 C 609.278 1420.046 604.364 1415.562 631.144 1399.961 Z  M 603.688 1407.331 C 628.565 1387.676 615.789 1374.9 615.789 1374.9 C 620.948 1395.17 597.608 1401.312 589.193 1413.965 C 583.419 1422.564 592.018 1431.839 603.504 1442.465 C 599.143 1432.023 583.726 1423.056 603.688 1407.331 Z  M 587.35 1469.921 C 568.432 1475.204 598.897 1486.076 622.914 1475.818 C 620.58 1474.897 618.307 1473.791 616.157 1472.501 C 607.804 1474.405 599.205 1474.774 590.728 1473.607 C 582.682 1472.624 587.35 1469.921 587.35 1469.921 Z  M 620.027 1459.602 C 609.278 1461.936 598.16 1462.489 587.227 1461.199 C 579.181 1460.401 584.463 1456.47 584.463 1456.47 C 563.579 1463.41 596.011 1471.211 625.002 1462.735 C 623.221 1462.059 621.501 1460.892 620.027 1459.602 Z  M 641.034 1479.872 C 641.034 1479.872 644.535 1482.759 637.287 1484.97 C 623.282 1489.147 579.365 1490.437 567.203 1485.154 C 562.842 1483.25 571.073 1480.609 573.653 1480.056 C 575.065 1479.688 576.478 1479.565 577.891 1479.565 C 573.038 1476.248 546.381 1486.321 564.439 1489.147 C 613.393 1497.132 653.748 1485.461 641.034 1479.872 Z  M 624.204 1450.02 C 625.985 1448.853 627.889 1447.87 629.855 1447.011 C 629.855 1447.011 620.58 1448.608 611.305 1449.467 C 601.477 1450.45 591.588 1450.573 581.76 1449.836 C 567.326 1447.932 589.684 1442.465 589.684 1442.465 C 582.927 1442.465 576.294 1444.062 570.274 1447.072 C 557.683 1453.214 601.6 1455.978 624.204 1450.02 Z  M 629.732 1464.885 C 629.609 1465.13 629.486 1465.315 629.24 1465.499 C 660.013 1457.452 648.711 1436.999 633.97 1442.097 C 633.171 1442.465 632.496 1442.957 632.066 1443.632 C 632.926 1443.325 633.786 1443.079 634.707 1442.895 C 642.078 1441.421 652.643 1452.907 629.732 1464.885 Z  M 630.53 1493.201 C 612.042 1496.395 593.124 1496.64 574.513 1494.061 C 574.513 1494.061 577.338 1496.395 591.772 1497.316 C 613.885 1498.729 647.852 1496.517 648.65 1486.076 C 648.834 1486.137 647.237 1490.068 630.53 1493.201 Z " fill="rgb(41,171,226)"/></svg>