<?xml version="1.0" standalone="no"?><!-- Generator: Gravit.io --><svg xmlns="http://www.w3.org/2000/svg" xmlns:xlink="http://www.w3.org/1999/xlink" style="isolation:isolate" viewBox="118.6 2149.5 122.8 109.156" width="122.8" height="109.156"><path d=" M 139.067 2149.5 L 220.933 2149.5 L 220.933 2156.322 L 241.4 2156.322 L 241.4 2169.967 L 220.933 2169.967 L 220.933 2183.611 L 241.4 2183.611 L 241.4 2197.256 L 220.933 2197.256 L 220.933 2210.9 L 241.4 2210.9 L 241.4 2224.544 L 220.933 2224.544 L 220.933 2238.189 L 241.4 2238.189 L 241.4 2251.833 L 220.933 2251.833 L 220.933 2258.656 L 139.067 2258.656 L 139.067 2251.833 L 118.6 2251.833 L 118.6 2238.189 L 139.067 2238.189 L 139.067 2224.544 L 118.6 2224.544 L 118.6 2210.9 L 139.067 2210.9 L 139.067 2197.256 L 118.6 2197.256 L 118.6 2183.611 L 139.067 2183.611 L 139.067 2169.967 L 118.6 2169.967 L 118.6 2156.322 L 139.067 2156.322 L 139.067 2149.5 Z  M 173.178 2224.544 L 173.178 2245.011 L 180 2245.011 L 180 2224.544 L 173.178 2224.544 Z  M 186.822 2224.544 L 186.822 2245.011 L 193.644 2245.011 L 193.644 2224.544 L 186.822 2224.544 Z  M 200.467 2224.544 L 200.467 2245.011 L 207.289 2245.011 L 207.289 2224.544 L 200.467 2224.544 Z " fill="rgb(41,171,226)"/></svg>