<?xml version="1.0" standalone="no"?><!-- Generator: Gravit.io --><svg xmlns="http://www.w3.org/2000/svg" xmlns:xlink="http://www.w3.org/1999/xlink" style="isolation:isolate" viewBox="962.6 1023.9 122.8 138.491" width="122.8" height="138.491"><path d=" M 1024 1023.9 C 1022.158 1023.9 1020.248 1024.378 1018.679 1025.264 L 967.921 1054.6 C 964.647 1056.51 962.6 1060.058 962.6 1063.878 L 962.6 1122.413 C 962.6 1126.233 964.647 1129.781 967.921 1131.691 L 981.225 1139.332 C 987.706 1142.47 989.889 1142.538 992.891 1142.538 C 1002.442 1142.538 1007.968 1136.74 1007.968 1126.643 L 1007.968 1068.858 C 1007.968 1068.04 1007.286 1067.358 1006.467 1067.358 L 1000.122 1067.358 C 999.235 1067.358 998.553 1068.04 998.553 1068.858 L 998.553 1126.643 C 998.553 1131.145 993.914 1135.58 986.478 1131.828 L 972.492 1123.846 C 972.015 1123.504 971.742 1122.959 971.742 1122.413 L 971.742 1063.878 C 971.742 1063.264 972.015 1062.718 972.492 1062.446 L 1023.25 1033.178 C 1023.659 1032.905 1024.341 1032.905 1024.75 1033.178 L 1075.508 1062.446 C 1075.985 1062.718 1076.258 1063.264 1076.258 1063.878 L 1076.258 1122.413 C 1076.258 1122.959 1075.985 1123.504 1075.508 1123.846 L 1024.75 1153.113 C 1024.341 1153.386 1023.659 1153.386 1023.181 1153.113 L 1010.356 1145.336 C 1009.81 1145.131 1009.264 1145.063 1008.923 1145.267 C 1005.307 1147.314 1004.625 1147.723 1001.282 1148.747 C 1000.463 1149.02 999.167 1149.497 1001.76 1150.93 L 1018.679 1160.958 C 1020.316 1161.914 1022.09 1162.391 1024 1162.391 C 1025.91 1162.391 1027.684 1161.914 1029.321 1160.958 L 1080.079 1131.691 C 1083.353 1129.781 1085.4 1126.233 1085.4 1122.413 L 1085.4 1063.878 C 1085.4 1060.058 1083.353 1056.51 1080.079 1054.6 L 1029.321 1025.264 C 1027.752 1024.378 1025.91 1023.9 1024 1023.9 Z  M 1037.644 1065.857 C 1023.181 1065.857 1014.517 1071.928 1014.517 1082.162 C 1014.517 1093.146 1023.113 1096.352 1037.03 1097.716 C 1053.608 1099.354 1054.905 1101.81 1054.905 1105.084 C 1054.905 1110.747 1050.334 1113.135 1039.691 1113.135 C 1026.183 1113.135 1023.318 1109.792 1022.294 1103.106 C 1022.158 1102.424 1021.544 1101.878 1020.794 1101.878 L 1014.244 1101.878 C 1013.426 1101.878 1012.812 1102.492 1012.812 1103.379 C 1012.812 1111.838 1017.451 1122.072 1039.691 1122.072 C 1055.723 1122.072 1064.933 1115.727 1064.933 1104.675 C 1064.933 1093.691 1057.565 1090.826 1041.942 1088.711 C 1026.183 1086.664 1024.614 1085.573 1024.614 1081.889 C 1024.614 1078.819 1025.978 1074.726 1037.644 1074.726 C 1047.878 1074.726 1051.903 1076.977 1053.472 1084.004 C 1053.608 1084.686 1054.222 1085.164 1054.905 1085.164 L 1061.522 1085.164 C 1061.863 1085.164 1062.273 1085.027 1062.546 1084.686 C 1062.818 1084.413 1063.023 1084.004 1062.887 1083.594 C 1061.932 1071.451 1053.881 1065.857 1037.644 1065.857 Z " fill="rgb(41,171,226)"/></svg>