<?xml version="1.0" standalone="no"?>
<!DOCTYPE svg PUBLIC "-//W3C//DTD SVG 20010904//EN"
 "http://www.w3.org/TR/2001/REC-SVG-20010904/DTD/svg10.dtd">
<svg version="1.0" xmlns="http://www.w3.org/2000/svg"
 width="460.000000pt" height="460.000000pt" viewBox="0 0 460.000000 460.000000"
 preserveAspectRatio="xMidYMid meet">
<metadata>
Created by potrace 1.11, written by Peter Selinger 2001-2013
</metadata>
<g transform="translate(0.000000,460.000000) scale(0.100000,-0.100000)"
fill="#000000" stroke="none">
<path d="M2195 4593 c-355 -20 -692 -115 -991 -278 -88 -48 -276 -171 -329
-216 -148 -124 -247 -224 -374 -374 -90 -107 -233 -347 -306 -514 -239 -545
-250 -1207 -29 -1760 38 -93 100 -221 139 -286 13 -22 27 -47 31 -55 18 -38
113 -174 179 -255 316 -390 767 -676 1248 -789 206 -49 309 -61 537 -61 293 1
480 30 735 117 121 41 160 56 270 109 445 211 853 619 1064 1064 106 223 168
423 207 675 25 158 26 500 1 655 -81 505 -288 922 -631 1273 -67 68 -159 154
-206 192 -79 62 -215 157 -250 174 -8 4 -33 18 -55 31 -237 141 -545 243 -840
279 -144 17 -308 25 -400 19z m1717 -985 c6 -40 -12 -151 -34 -216 -18 -52
-32 -71 -80 -113 -55 -48 -96 -102 -151 -199 -27 -48 -267 -522 -267 -527 0
-2 83 -3 185 -3 184 0 226 -8 148 -29 -42 -11 -251 -39 -326 -43 -55 -3 -55
-4 -143 -193 -108 -235 -141 -326 -164 -447 -17 -91 -1 -162 41 -183 25 -14
33 -14 65 0 20 8 49 26 66 40 33 28 49 26 41 -5 -6 -24 -44 -52 -105 -80 -54
-24 -163 -27 -195 -5 -70 49 -59 277 24 525 39 117 98 262 135 333 8 16 -2 17
-158 17 l-166 0 -92 -87 c-147 -141 -278 -257 -390 -347 -34 -27 -63 -52 -66
-55 -26 -36 -426 -316 -550 -386 -302 -169 -497 -221 -688 -180 -174 36 -279
121 -328 265 -30 87 -25 266 9 393 105 386 451 798 863 1027 189 105 343 148
495 137 212 -14 279 -132 208 -370 -45 -151 -177 -357 -230 -357 -10 0 -19 4
-19 8 0 7 69 125 100 172 60 90 89 212 73 307 -26 150 -124 208 -295 172 -84
-17 -263 -110 -373 -192 -130 -97 -283 -251 -369 -372 -68 -95 -117 -189 -201
-380 -70 -159 -120 -381 -112 -490 9 -99 25 -141 75 -191 118 -118 360 -102
631 43 154 83 368 226 491 329 152 128 352 302 473 413 172 156 172 154 -11
127 -180 -27 -195 -22 -172 49 19 59 58 71 174 57 52 -7 129 -12 170 -12 l75
0 313 317 c609 617 674 681 723 716 59 43 102 49 107 15z"/>
<path d="M3505 3152 c-39 -37 -109 -103 -155 -147 -47 -44 -146 -137 -220
-206 -74 -70 -162 -152 -195 -183 l-60 -55 156 -1 157 0 78 135 c44 74 86 147
94 163 17 29 19 32 104 164 31 48 56 90 56 92 0 3 14 26 31 51 17 25 29 48 27
50 -2 2 -35 -26 -73 -63z"/>
</g>
</svg>
